<?xml version="1.0"?>
<svg xmlns="http://www.w3.org/2000/svg" id="Layer_1" data-name="Layer 1" viewBox="0 0 512 512"><path d="M511.9,385.85l-5.869-34.342a8.006,8.006,0,0,0-6.731-6.566l-26.347-3.869q-1.969-3.43-4.246-6.734l7.935-25.4a8.006,8.006,0,0,0-3.014-8.921L445.2,279.861a8.007,8.007,0,0,0-9.42.113l-21.341,15.92q-3.807-1.028-7.758-1.747l-12.366-23.6a8,8,0,0,0-8.449-4.177l-34.343,5.866a8.007,8.007,0,0,0-6.582,6.735l-3.848,26.371q-3.486,1.99-6.729,4.219l-25.433-7.935A8,8,0,0,0,300,304.644L279.882,333.07a7.954,7.954,0,0,0-1.306,3.1A104,104,0,0,0,214.7,314.385H203.091V298.331a85.639,85.639,0,0,0,42.1-60.907H263.03a11.975,11.975,0,0,0,11.976-11.948V185.252a11.966,11.966,0,0,0-10.176-11.8V151.633a105.7,105.7,0,0,0-62.861-96.521c.145-1.456.244-2.926.244-4.42A42.931,42.931,0,1,0,116.6,55.109a105.694,105.694,0,0,0-62.87,96.524v22.012a11.966,11.966,0,0,0-9.184,11.607v40.224a11.9,11.9,0,0,0,.206,2.158,7.993,7.993,0,0,0-.206,1.782v15.449c0,15.794,14.07,28.644,31.365,28.644H88.727a86.071,86.071,0,0,0,27.738,25.033v15.843H104.856A104.986,104.986,0,0,0-.011,419.252v84.756A8.008,8.008,0,0,0,8,512.016H311.53a8.008,8.008,0,0,0,8.008-8.008V488.8l13.553,9.606a8.01,8.01,0,0,0,9.428-.119l13.927-10.417,7.4-5.5c2.54.686,5.135,1.27,7.766,1.749l12.367,23.6a8.007,8.007,0,0,0,7.09,4.293,8.121,8.121,0,0,0,1.358-.116l34.344-5.866a8.008,8.008,0,0,0,6.582-6.735l3.847-26.371q3.486-1.99,6.729-4.218l25.447,7.909a8.006,8.006,0,0,0,8.9-3.018L498.4,445.2a8.008,8.008,0,0,0-.109-9.412l-15.922-21.371c.7-2.564,1.288-5.158,1.768-7.764l23.579-12.367A8,8,0,0,0,511.9,385.85ZM214.7,330.4c1.99,0,3.967.089,5.937.22l-22.512,51.744-26.418-24.023,28.416-25.533a8.014,8.014,0,0,0,.635-.572L202.8,330.4Zm-54.933,17.138L132.48,323V305.556a85.171,85.171,0,0,0,25.952,4.038h2.324a85.151,85.151,0,0,0,26.319-4.163V323ZM258.99,221.408H246.234V189.32H258.99ZM159.282,23.748A26.957,26.957,0,0,1,186.168,49.56a105.746,105.746,0,0,0-53.772,0A26.957,26.957,0,0,1,159.282,23.748ZM60.565,189.32H72.953v32.088H60.565Zm15.35,68.173c-8.32,0-15.35-5.783-15.35-12.628v-7.441H73.99a84.736,84.736,0,0,0,5.745,20.069ZM80.459,173.3H69.75V151.633a89.68,89.68,0,0,1,58.074-83.822c.013,0,.027-.005.039-.009a8.126,8.126,0,0,0,1.094-.41,89.556,89.556,0,0,1,60.769.042,8.08,8.08,0,0,0,.883.327,89.681,89.681,0,0,1,58.2,83.872V173.3h-2.58v-11.3a8.008,8.008,0,0,0-5.32-7.544C223.6,148.3,209.138,137.8,196.7,122.37a8.008,8.008,0,0,0-12.2-.314C158.305,151.315,124.27,168.079,80.459,173.3Zm29.183,100.205h48.279a8.008,8.008,0,0,0,0-16.016H97.526a68.97,68.97,0,0,1-8.557-33.349V188.325c40.875-6.076,74.858-22.521,101.224-48.983a111.773,111.773,0,0,0,40.026,28.167v56.635a69.5,69.5,0,0,1-38.611,62.185c-.154.074-.306.15-.455.233a69.047,69.047,0,0,1-30.4,7.016h-2.324a69.069,69.069,0,0,1-29.932-6.786,8.031,8.031,0,0,0-.963-.485A69.777,69.777,0,0,1,109.642,273.509ZM104.856,330.4h11.9l2.161,1.943c.16.154.324.305.5.446l28.418,25.552-26.4,24.019L98.912,330.6C100.878,330.474,102.858,330.4,104.856,330.4ZM269.932,496V438.273a8.008,8.008,0,0,0-16.016,0V496H80.124V438.273a8.008,8.008,0,0,0-16.016,0V496h-48.1V419.252a89.009,89.009,0,0,1,66.584-86.025L111.205,399a8.008,8.008,0,0,0,12.733,2.729l35.828-32.6,35.854,32.6A8.008,8.008,0,0,0,208.351,399l28.61-65.764A89.378,89.378,0,0,1,290.729,373.4l-20.172,10.587a8.005,8.005,0,0,0-4.168,8.429l5.84,34.329a8.009,8.009,0,0,0,6.734,6.58l26.368,3.847q1.968,3.437,4.251,6.754l-7.935,25.405a8,8,0,0,0,1.875,7.921V496ZM473.15,394.333a8.01,8.01,0,0,0-4.207,5.99,79.326,79.326,0,0,1-3.012,13.232,8.008,8.008,0,0,0,1.209,7.226l14.835,19.9L468.569,459.6l-23.691-7.373a8.011,8.011,0,0,0-7.227,1.263,78.909,78.909,0,0,1-11.476,7.2,8,8,0,0,0-4.251,5.965l-3.577,24.561-22.888,3.909-11.525-22a8.01,8.01,0,0,0-5.994-4.214,79.471,79.471,0,0,1-13.232-2.984,8.008,8.008,0,0,0-7.215,1.2L337.6,481.969,318.67,468.552l7.392-23.668a8.007,8.007,0,0,0-1.248-7.207,79.319,79.319,0,0,1-7.235-11.506,8.009,8.009,0,0,0-5.976-4.27l-24.562-3.578-3.89-22.862,21.971-11.519a8.006,8.006,0,0,0,4.221-6,79.414,79.414,0,0,1,3.012-13.233,8,8,0,0,0-1.209-7.225l-14.834-19.9,13.406-18.937,23.689,7.393a8.009,8.009,0,0,0,7.229-1.264,78.962,78.962,0,0,1,11.475-7.2,8,8,0,0,0,4.251-5.965l3.577-24.561,22.888-3.909,11.526,22a8.006,8.006,0,0,0,5.993,4.214,79.471,79.471,0,0,1,13.232,2.984,8,8,0,0,0,7.226-1.209l19.879-14.829,18.933,13.422-7.392,23.668a8.006,8.006,0,0,0,1.248,7.207,80.681,80.681,0,0,1,7.245,11.5,8.01,8.01,0,0,0,5.95,4.25l24.561,3.609,3.906,22.852Zm-47.322-56.991a63.468,63.468,0,1,0-36.82,115.266,64.284,64.284,0,0,0,10.816-.921,63.472,63.472,0,0,0,26-114.345Zm2.019,79.213a47.433,47.433,0,1,1-77.413-54.833l0-.009a47.433,47.433,0,1,1,77.408,54.842Zm40.539-315.662a8.008,8.008,0,0,1-8.008,8.008H442.6a8.008,8.008,0,0,1,0-16.016h17.774A8.008,8.008,0,0,1,468.386,100.893ZM318.178,66.566a8.008,8.008,0,0,1,8.008-8.008h17.773a8.008,8.008,0,1,1,0,16.015H326.186A8.007,8.007,0,0,1,318.178,66.566Zm45.269,0a8.008,8.008,0,0,1,8.008-8.008h88.923a8.008,8.008,0,1,1,0,16.015H371.455A8.007,8.007,0,0,1,363.447,66.566Zm-45.269,34.327a8.008,8.008,0,0,1,8.008-8.008h88.922a8.008,8.008,0,0,1,0,16.016H326.186A8.008,8.008,0,0,1,318.178,100.893ZM299.8,160.037h17l2.658,29.422a8.009,8.009,0,0,0,12.852,5.632l45.664-35.054h108.8a25.27,25.27,0,0,0,25.242-25.292L511.33,25.3a26.675,26.675,0,0,0-8.842-19.549A22.057,22.057,0,0,0,485.153.133L298.766,21.972c-14.256,1.848-24.213,12.212-24.213,25.2v87.619A25.27,25.27,0,0,0,299.8,160.037ZM290.568,47.176c0-5.52,5.152-8.659,10.159-9.31L487.02,16.039h0a5.631,5.631,0,0,1,.641-.038,6.454,6.454,0,0,1,4.217,1.751,10.563,10.563,0,0,1,3.434,7.648L496,134.843a8.991,8.991,0,0,1-2.666,6.423,9.2,9.2,0,0,1-6.56,2.756H375.254a8.008,8.008,0,0,0-4.876,1.655L334.1,173.527l-2.007-22.218a8.008,8.008,0,0,0-7.976-7.287H299.8a9.237,9.237,0,0,1-9.227-9.227Z"/></svg>
