<svg id="Capa_1" enable-background="new 0 0 512.016 512.016" height="512" viewBox="0 0 512.016 512.016" width="512" xmlns="http://www.w3.org/2000/svg"><g><path d="m246.134 226.009c13.254-.492 13.244-19.512 0-20h-35c-5.522 0-10 4.478-10 10v80c0 5.522 4.478 10 10 10h35c13.254-.492 13.244-19.512 0-20h-25v-20h14.624c13.254-.492 13.244-19.512 0-20h-14.624v-20z"/><path d="m375.883 206.009h-35c-13.254.492-13.244 19.512 0 20h7.5v70c.492 13.254 19.512 13.244 20 0v-70h7.5c13.254-.492 13.244-19.512 0-20z"/><path d="m156.134 206.009h-20c-5.522 0-10 4.478-10 10v79.999c0 5.522 4.478 10 10 10h20c25.746.206 39.566-31.229 22.343-49.999 17.205-18.923 3.482-50.094-22.343-50zm0 79.999h-10v-19.999h10c13.252.504 13.241 19.499 0 19.999zm0-39.999h-10v-20h10c13.251.505 13.241 19.5 0 20z"/><path d="m302.593 248.972-10.633-4.403c-4.916-2.037-7.259-7.693-5.223-12.61.978-2.361 2.836-4.208 5.231-5.2 2.394-.992 5.015-1 7.377-.021l5.316 2.202c5.104 2.11 10.952-.31 13.066-5.412 2.113-5.103-.31-10.952-5.412-13.066l-5.317-2.202c-7.298-3.023-15.354-3.015-22.684.021-7.332 3.037-13.034 8.729-16.057 16.026-6.256 15.104.942 32.482 16.047 38.74l10.635 4.404c2.361.978 4.208 2.836 5.2 5.23.992 2.396 1 5.016.021 7.378-2.035 4.916-7.694 7.26-12.608 5.223l-5.316-2.202c-5.104-2.108-10.951.311-13.066 5.412-2.113 5.103.31 10.952 5.412 13.066l5.317 2.202c3.699 1.531 7.532 2.257 11.307 2.256 11.641-.001 22.71-6.898 27.434-18.305 6.39-14.551-1.24-32.968-16.047-38.739z"/><path d="m484.537 256.009 26.969-81.871c1.004-3.048.484-6.392-1.396-8.99-1.881-2.6-4.895-4.139-8.103-4.139h-33.332c-3.915-11.08-5.711-21.25-7.455-31.13-5.59-46.557-32.581-73.499-79.079-79.08-11.631-2.052-23.658-4.174-37.098-9.741-13.439-5.566-23.445-12.57-33.12-19.344-36.892-28.976-74.998-28.929-111.831.001-9.676 6.772-19.681 13.776-33.12 19.343s-25.466 7.689-37.098 9.741c-19.167 3.383-37.271 6.577-54.886 24.19-17.613 17.613-20.81 35.72-24.193 54.889-1.744 9.88-3.54 20.05-7.456 31.131h-33.331c-3.208 0-6.222 1.539-8.103 4.139-1.88 2.6-2.399 5.943-1.396 8.99l26.97 81.871-26.969 81.871c-1.004 3.047-.484 6.391 1.396 8.99 1.881 2.6 4.895 4.139 8.103 4.139h33.331c3.916 11.081 5.711 21.251 7.456 31.131 3.383 19.168 6.579 37.273 24.192 54.888 17.614 17.613 35.719 20.808 54.887 24.19 11.631 2.052 23.658 4.174 37.098 9.741 13.439 5.566 23.443 12.57 33.119 19.343 36.869 28.971 75.011 28.932 111.832.001 9.676-6.773 19.681-13.777 33.12-19.344 13.438-5.566 25.466-7.688 37.097-9.741 19.168-3.381 37.272-6.576 54.887-24.189 17.614-17.614 20.81-35.721 24.193-54.89 1.744-9.879 3.54-20.05 7.455-31.13h33.332c3.208 0 6.222-1.539 8.103-4.139 1.88-2.599 2.399-5.942 1.396-8.99zm-414.046-122.654c3.064-17.357 5.484-31.067 18.641-44.223 13.155-13.155 26.863-15.574 44.219-18.637 12.1-2.135 25.813-4.555 41.276-10.959 15.462-6.405 26.87-14.392 36.936-21.438 14.438-10.106 25.842-18.09 44.446-18.09s30.008 7.983 44.445 18.09c10.065 7.046 21.474 15.032 36.936 21.438 15.462 6.404 29.177 8.824 41.276 10.959 39.201 4.987 57.872 23.695 62.859 62.86 1.485 8.412 3.11 17.62 6.121 27.653h-31.074c-1.24-4.955-2.373-10.228-3.431-15.96-.337-1.82-.653-3.727-.977-5.668-1-6.005-2.033-12.214-3.845-17.964-2.778-8.815-8.906-14.942-17.721-17.72-5.751-1.812-11.961-2.846-17.966-3.846-1.94-.323-3.846-.64-5.666-.977-31.463-5.81-51.955-14.298-78.311-32.438-1.526-1.05-3.098-2.174-4.7-3.318-4.952-3.538-10.072-7.197-15.419-9.981-8.195-4.269-16.862-4.271-25.06 0-5.347 2.784-10.467 6.443-15.419 9.981-1.603 1.145-3.174 2.269-4.701 3.319-26.355 18.139-46.848 26.627-78.311 32.437-1.821.337-3.728.653-5.67.977-6.003 1-12.212 2.033-17.962 3.846-8.813 2.777-14.94 8.904-17.72 17.72-1.812 5.749-2.845 11.958-3.845 17.961-.323 1.942-.64 3.849-.977 5.67-1.06 5.737-2.193 11.01-3.431 15.961h-31.07c3.011-10.032 4.637-19.241 6.121-27.653zm325.518 27.654h-280.001c.895-3.912 1.736-8.003 2.535-12.328.356-1.934.694-3.956 1.037-6.018.887-5.322 1.803-10.826 3.191-15.235.793-2.515 2.142-3.863 4.655-4.655 4.41-1.39 9.914-2.306 15.236-3.192 2.062-.343 4.084-.681 6.017-1.037 34.122-6.301 57.435-15.957 86.018-35.629 1.62-1.115 3.289-2.307 4.989-3.521 4.391-3.138 8.93-6.381 13.03-8.517 2.338-1.219 4.245-1.217 6.583 0 4.101 2.136 8.64 5.379 13.03 8.517 1.7 1.215 3.369 2.406 4.988 3.521 28.583 19.672 51.896 29.329 86.018 35.63 1.932.356 3.952.693 6.012 1.036 5.324.888 10.831 1.805 15.242 3.194 2.514.792 3.862 2.141 4.654 4.654 1.39 4.41 2.306 9.914 3.192 15.237.343 2.061.681 4.084 1.037 6.016.8 4.322 1.641 8.413 2.537 12.327zm45.516 217.653c-3.064 17.357-5.484 31.067-18.641 44.224-13.155 13.156-26.864 15.574-44.22 18.637-12.1 2.135-25.813 4.555-41.275 10.958-15.462 6.405-26.87 14.392-36.936 21.438-14.438 10.107-25.842 18.091-44.446 18.09-18.604 0-30.009-7.983-44.446-18.09-10.065-7.046-21.474-15.032-36.935-21.438-15.463-6.404-29.177-8.824-41.276-10.959-39.21-4.992-57.869-23.69-62.859-62.859-1.485-8.411-3.111-17.62-6.121-27.654h31.074c1.239 4.95 2.371 10.223 3.431 15.96.337 1.821.653 3.728.977 5.67 1 6.004 2.033 12.213 3.845 17.96 2.776 8.815 8.904 14.942 17.721 17.722 5.748 1.812 11.957 2.845 17.961 3.845 1.942.323 3.849.64 5.67.977 31.464 5.811 51.956 14.298 78.311 32.437 1.524 1.049 3.094 2.171 4.693 3.314 4.955 3.54 10.078 7.201 15.427 9.986 8.197 4.269 16.862 4.27 25.059 0 7.028-3.656 13.6-8.793 20.12-13.301 26.354-18.139 46.848-26.627 78.309-32.437 1.817-.335 3.719-.651 5.655-.974 6.01-1 12.224-2.035 17.977-3.848 8.816-2.777 14.944-8.905 17.721-17.719 2.385-7.556 3.399-15.835 4.823-23.634 1.058-5.732 2.191-11.004 3.431-15.959h31.074c-3.013 10.035-4.639 19.243-6.124 27.654zm-325.517-27.653h280.001c-.896 3.913-1.737 8.004-2.535 12.327-.356 1.933-.694 3.955-1.037 6.015-.886 5.324-1.803 10.828-3.193 15.24-.792 2.514-2.14 3.861-4.654 4.653-4.414 1.391-9.924 2.309-15.252 3.195-2.056.342-4.072.679-6.001 1.034-34.122 6.301-57.436 15.957-86.02 35.63-1.614 1.112-3.278 2.301-4.974 3.512-4.395 3.141-8.938 6.388-13.043 8.525-2.337 1.217-4.244 1.218-6.583 0-4.103-2.137-8.645-5.383-13.037-8.521-1.698-1.213-3.364-2.403-4.981-3.516-28.582-19.672-51.896-29.328-86.018-35.63-1.934-.356-3.957-.694-6.019-1.037-5.322-.887-10.826-1.803-15.234-3.192-2.515-.792-3.863-2.141-4.655-4.654-1.39-4.409-2.306-9.913-3.192-15.235-.343-2.062-.681-4.085-1.037-6.019-.8-4.325-1.641-8.416-2.536-12.327zm-92.178-20 23.676-71.871c.669-2.032.669-4.226 0-6.258l-23.676-71.871h464.355l-23.675 71.871c-.669 2.032-.669 4.226 0 6.258l23.675 71.871z"/></g></svg>