<svg id="Layer_3" enable-background="new 0 0 64 64" height="512" viewBox="0 0 64 64" width="512" xmlns="http://www.w3.org/2000/svg"><g><path d="m31 37h-2v-3.479c2.995-1.566 5.307-4.261 6.364-7.521h.636c2.206 0 4-1.794 4-4 0-2.003-1.48-3.667-3.404-3.956l2.53-5.06c.572-1.144.874-2.424.874-3.703 0-4.566-3.715-8.281-8.281-8.281h-17.438c-4.566 0-8.281 3.715-8.281 8.281 0 1.279.302 2.559.874 3.704l2.53 5.06c-1.924.288-3.404 1.952-3.404 3.955 0 2.206 1.794 4 4 4h.636c1.057 3.26 3.369 5.955 6.364 7.521v3.479h-2c-7.72 0-14 6.28-14 14v11c0 .552.448 1 1 1h42c.552 0 1-.448 1-1v-11c0-7.72-6.28-14-14-14zm-13.468 2 3.892 4.67-3.84 1.92-2.196-6.59zm5.326 11h.284l1.692 11h-3.669zm.524-2h-.764l-1.076-2.153 1.458-.729 1.458.729zm1.194-4.33 3.892-4.67h2.144l-2.196 6.59zm.424-26.67c-.552 0-1 .448-1 1v1h-2v-1c0-.552-.448-1-1-1h-9v-2h3.615c3.011 0 5.742-1.477 7.385-3.885 1.644 2.408 4.374 3.885 7.385 3.885h3.615v2zm5 2v2h-4v-2zm-10 0v2h-4v-2zm18 3c0 1.103-.897 2-2 2h-.17c.102-.654.17-1.318.17-2v-2c1.103 0 2 .897 2 2zm-29.337-9.91c-.434-.867-.663-1.839-.663-2.809 0-3.463 2.818-6.281 6.281-6.281h17.438c3.463 0 6.281 2.818 6.281 6.281 0 .97-.229 1.941-.663 2.809l-1.337 2.674v-.764c0-.552-.448-1-1-1h-4.615c-2.86 0-5.395-1.716-6.457-4.372-.152-.379-.519-.628-.928-.628s-.776.249-.929.628c-1.062 2.656-3.596 4.372-6.456 4.372h-4.615c-.552 0-1 .448-1 1v.764zm1.337 11.91c-1.103 0-2-.897-2-2s.897-2 2-2v2c0 .682.069 1.346.17 2zm2-2v-3h2v3c0 .552.448 1 1 1h6c.552 0 1-.448 1-1v-1h2v1c0 .552.448 1 1 1h6c.552 0 1-.448 1-1v-3h2v3c0 6.065-4.935 11-11 11s-11-4.935-11-11zm11 13c1.396 0 2.739-.227 4-.636v3.274l-4 4.8-4-4.8v-3.274c1.261.409 2.604.636 4 .636zm-20 16c0-6.046 4.499-11.049 10.323-11.869l2.728 8.185c.092.275.298.497.566.607.123.052.253.077.383.077.153 0 .307-.035.447-.105l2.305-1.153 1.211 2.421-1.821 11.837h-9.142v-9h-2v9h-5zm40 10h-5v-9h-2v9h-9.142l-1.821-11.837 1.211-2.421 2.305 1.153c.14.07.294.105.447.105.13 0 .26-.025.383-.076.268-.111.474-.333.566-.607l2.728-8.185c5.824.819 10.323 5.822 10.323 11.868z"/><path d="m28 26h-2c0 1.654-1.346 3-3 3s-3-1.346-3-3h-2c0 2.757 2.243 5 5 5s5-2.243 5-5z"/><path d="m63 18c0-6.065-4.935-11-11-11s-11 4.935-11 11c0 3.408 1.559 6.459 4 8.479v13.521c0 .404.244.769.617.924.374.154.803.069 1.09-.217l5.293-5.293 5.293 5.293c.191.191.447.293.707.293.129 0 .259-.025.383-.076.373-.155.617-.52.617-.924v-13.521c2.441-2.02 4-5.071 4-8.479zm-20 0c0-4.962 4.038-9 9-9s9 4.038 9 9-4.038 9-9 9-9-4.038-9-9zm14 19.586-4.293-4.293c-.391-.391-1.023-.391-1.414 0l-4.293 4.293v-9.8c1.502.77 3.199 1.214 5 1.214s3.498-.444 5-1.214z"/><path d="m47.03 22.757c-.095.379.04.778.345 1.023.304.244.723.289 1.073.114l3.552-1.776 3.553 1.776c.141.071.295.106.447.106.223 0 .445-.075.625-.22.305-.245.439-.644.345-1.023l-.829-3.316 2.414-1.609c.33-.22.498-.613.431-1.003s-.359-.703-.743-.799l-3.554-.888-1.794-3.589c-.339-.678-1.45-.678-1.789 0l-1.794 3.589-3.554.888c-.384.096-.675.41-.743.799-.067.39.101.783.431 1.003l2.414 1.609zm3.213-5.787c.283-.071.521-.262.652-.523l1.105-2.211 1.105 2.211c.131.261.369.452.652.523l1.807.452-1.119.746c-.352.234-.518.665-.416 1.075l.473 1.891-2.055-1.028c-.14-.071-.294-.106-.447-.106s-.307.035-.447.105l-2.055 1.028.473-1.891c.103-.41-.064-.84-.416-1.075l-1.119-.746z"/></g></svg>